# xmcd
#
# Track frame offsets: 
#        187
#        32764
#        51437
#        69392
#        92362
#        119339
#        136327
#        152879
#        171039
#        190534
#
# Disc length: 2831 seconds
#
# Revision: 1
# Processed by: cddbd v1.5.2PL0 Copyright (c) Steve Scherf et al.
# Submitted via: ExactAudioCopyFreeDBPlugin 1.0
#
DISCID=7e0b0d0a
DTITLE=Paul Rogers - The Chronicle
DYEAR=1994
DGENRE=R&B
TTITLE0=ALL RIGHT NOW
TTITLE1=WISHING WELL
TTITLE2=FIRE and WATER
TTITLE3=BAD COMPANY
TTITLE4=FEEL LIKE MAKING LOVE
TTITLE5=CAN'T GET ENOUGH
TTITLE6=THE HUNTER
TTITLE7=I JUST WANT TO MAKE LOVE TO YOU
TTITLE8=PURPLE HAZE
TTITLE9=LITTLE WING
EXTD=
EXTT0=
EXTT1=
EXTT2=
EXTT3=
EXTT4=
EXTT5=
EXTT6=
EXTT7=
EXTT8=
EXTT9=
PLAYORDER=
